<svg width="394" height="394" viewBox="0 0 394 394" fill="none" xmlns="http://www.w3.org/2000/svg">
<path d="M379.793 196.875C379.793 95.852 297.898 13.9567 196.875 13.9567C95.852 13.9567 13.9567 95.852 13.9567 196.875C13.9567 297.898 95.852 379.793 196.875 379.793V385.875C92.4932 385.875 7.875 301.257 7.875 196.875C7.875 92.4932 92.4932 7.875 196.875 7.875C301.257 7.875 385.875 92.4932 385.875 196.875C385.875 301.257 301.257 385.875 196.875 385.875V379.793C297.898 379.793 379.793 297.898 379.793 196.875Z" fill="#FF47E9"/>
<g filter="url(#filter0_f_1_123)">
<path d="M379.326 196.875C379.326 96.1104 297.64 14.4245 196.875 14.4245C96.1104 14.4245 14.4245 96.1104 14.4245 196.875C14.4245 297.64 96.1104 379.326 196.875 379.326V385.875C92.4932 385.875 7.875 301.257 7.875 196.875C7.875 92.4932 92.4932 7.875 196.875 7.875C301.257 7.875 385.875 92.4932 385.875 196.875C385.875 301.257 301.257 385.875 196.875 385.875V379.326C297.64 379.326 379.326 297.64 379.326 196.875Z" fill="#FF4778"/>
</g>
<defs>
<filter id="filter0_f_1_123" x="0" y="0" width="393.75" height="393.75" filterUnits="userSpaceOnUse" color-interpolation-filters="sRGB">
<feFlood flood-opacity="0" result="BackgroundImageFix"/>
<feBlend mode="normal" in="SourceGraphic" in2="BackgroundImageFix" result="shape"/>
<feGaussianBlur stdDeviation="3.9375" result="effect1_foregroundBlur_1_123"/>
</filter>
</defs>
</svg>
