<svg width="72" height="72" viewBox="0 0 72 72" fill="none" xmlns="http://www.w3.org/2000/svg">
<rect x="2" y="2" width="68" height="68" rx="34" fill="#813D3D" stroke="#171717" stroke-width="4"/>
<rect x="8" y="8" width="56" height="56" rx="28" fill="url(#paint0_linear_1_247)"/>
<path d="M19.9249 34.6364C19.9249 35.5881 19.7445 36.3977 19.3837 37.0653C19.0257 37.733 18.5371 38.2429 17.9178 38.5952C17.3013 38.9446 16.6081 39.1193 15.8382 39.1193C15.0627 39.1193 14.3667 38.9432 13.7502 38.5909C13.1337 38.2386 12.6465 37.7287 12.2885 37.0611C11.9306 36.3935 11.7516 35.5852 11.7516 34.6364C11.7516 33.6847 11.9306 32.875 12.2885 32.2074C12.6465 31.5398 13.1337 31.0312 13.7502 30.6818C14.3667 30.3295 15.0627 30.1534 15.8382 30.1534C16.6081 30.1534 17.3013 30.3295 17.9178 30.6818C18.5371 31.0312 19.0257 31.5398 19.3837 32.2074C19.7445 32.875 19.9249 33.6847 19.9249 34.6364ZM18.0542 34.6364C18.0542 34.0199 17.9618 33.5 17.7772 33.0767C17.5953 32.6534 17.3382 32.3324 17.0059 32.1136C16.6735 31.8949 16.2843 31.7855 15.8382 31.7855C15.3922 31.7855 15.003 31.8949 14.6706 32.1136C14.3382 32.3324 14.0797 32.6534 13.8951 33.0767C13.7132 33.5 13.6223 34.0199 13.6223 34.6364C13.6223 35.2528 13.7132 35.7727 13.8951 36.196C14.0797 36.6193 14.3382 36.9403 14.6706 37.1591C15.003 37.3778 15.3922 37.4872 15.8382 37.4872C16.2843 37.4872 16.6735 37.3778 17.0059 37.1591C17.3382 36.9403 17.5953 36.6193 17.7772 36.196C17.9618 35.7727 18.0542 35.2528 18.0542 34.6364ZM27.3599 32.4545L25.0716 39H23.0261L20.7377 32.4545H22.6554L24.0147 37.1378H24.0829L25.438 32.4545H27.3599ZM31.0609 39.1278C30.3876 39.1278 29.8081 38.9915 29.3223 38.7188C28.8393 38.4432 28.4672 38.054 28.2058 37.5511C27.9444 37.0455 27.8137 36.4474 27.8137 35.7571C27.8137 35.0838 27.9444 34.4929 28.2058 33.9844C28.4672 33.4759 28.835 33.0795 29.3095 32.7955C29.7868 32.5114 30.3464 32.3693 30.9885 32.3693C31.4203 32.3693 31.8223 32.4389 32.1944 32.5781C32.5694 32.7145 32.8961 32.9205 33.1745 33.196C33.4558 33.4716 33.6745 33.8182 33.8308 34.2358C33.987 34.6506 34.0652 35.1364 34.0652 35.6932V36.1918H28.5382V35.0668H32.3564C32.3564 34.8054 32.2995 34.5739 32.1859 34.3722C32.0723 34.1705 31.9146 34.0128 31.7129 33.8991C31.514 33.7827 31.2825 33.7244 31.0183 33.7244C30.7427 33.7244 30.4984 33.7884 30.2853 33.9162C30.0751 34.0412 29.9103 34.2102 29.791 34.4233C29.6717 34.6335 29.6106 34.8679 29.6078 35.1264V36.196C29.6078 36.5199 29.6674 36.7997 29.7868 37.0355C29.9089 37.2713 30.0808 37.4531 30.3024 37.581C30.524 37.7088 30.7868 37.7727 31.0907 37.7727C31.2924 37.7727 31.4771 37.7443 31.6447 37.6875C31.8123 37.6307 31.9558 37.5455 32.0751 37.4318C32.1944 37.3182 32.2853 37.179 32.3478 37.0142L34.0268 37.125C33.9416 37.5284 33.7669 37.8807 33.5027 38.1818C33.2413 38.4801 32.9032 38.7131 32.4885 38.8807C32.0765 39.0455 31.6007 39.1278 31.0609 39.1278ZM35.2498 39V32.4545H37.0098V33.5966H37.0779C37.1973 33.1903 37.3975 32.8835 37.6788 32.6761C37.96 32.4659 38.2839 32.3608 38.6504 32.3608C38.7413 32.3608 38.8393 32.3665 38.9444 32.3778C39.0495 32.3892 39.1419 32.4048 39.2214 32.4247V34.0355C39.1362 34.0099 39.0183 33.9872 38.8677 33.9673C38.7172 33.9474 38.5794 33.9375 38.4544 33.9375C38.1873 33.9375 37.9487 33.9957 37.7385 34.1122C37.5311 34.2259 37.3663 34.3849 37.2441 34.5895C37.1248 34.794 37.0652 35.0298 37.0652 35.2969V39H35.2498ZM42.2672 39.1065C41.7701 39.1065 41.3198 38.9787 40.9164 38.723C40.5158 38.4645 40.1976 38.0852 39.9618 37.5852C39.7289 37.0824 39.6124 36.4659 39.6124 35.7358C39.6124 34.9858 39.7331 34.3622 39.9746 33.8651C40.2161 33.3651 40.5371 32.9915 40.9377 32.7443C41.3411 32.4943 41.7828 32.3693 42.263 32.3693C42.6294 32.3693 42.9348 32.4318 43.1792 32.5568C43.4263 32.679 43.6252 32.8324 43.7757 33.017C43.9292 33.1989 44.0456 33.3778 44.1252 33.554H44.1806V30.2727H45.9917V39H44.2019V37.9517H44.1252C44.04 38.1335 43.9192 38.3139 43.763 38.4929C43.6096 38.669 43.4093 38.8153 43.1621 38.9318C42.9178 39.0483 42.6195 39.1065 42.2672 39.1065ZM42.8425 37.6619C43.1351 37.6619 43.3823 37.5824 43.584 37.4233C43.7885 37.2614 43.9448 37.0355 44.0527 36.7457C44.1635 36.456 44.2189 36.1165 44.2189 35.7273C44.2189 35.3381 44.165 35 44.057 34.7131C43.949 34.4261 43.7928 34.2045 43.5882 34.0483C43.3837 33.892 43.1351 33.8139 42.8425 33.8139C42.5442 33.8139 42.2928 33.8949 42.0882 34.0568C41.8837 34.2187 41.7289 34.4432 41.6238 34.7301C41.5186 35.017 41.4661 35.3494 41.4661 35.7273C41.4661 36.108 41.5186 36.4446 41.6238 36.7372C41.7317 37.027 41.8865 37.2543 42.0882 37.419C42.2928 37.581 42.5442 37.6619 42.8425 37.6619ZM51.6816 36.2131V32.4545H53.497V39H51.7541V37.8111H51.6859C51.5382 38.1946 51.2924 38.5028 50.9487 38.7358C50.6078 38.9687 50.1916 39.0852 49.7001 39.0852C49.2626 39.0852 48.8777 38.9858 48.5453 38.7869C48.2129 38.5881 47.9529 38.3054 47.7654 37.9389C47.5808 37.5724 47.487 37.1335 47.4842 36.6222V32.4545H49.2995V36.2983C49.3024 36.6847 49.4061 36.9901 49.6106 37.2145C49.8152 37.4389 50.0893 37.5511 50.4331 37.5511C50.6518 37.5511 50.8564 37.5014 51.0467 37.402C51.237 37.2997 51.3904 37.1491 51.5069 36.9503C51.6262 36.7514 51.6845 36.5057 51.6816 36.2131ZM54.9831 39V30.2727H56.7985V33.554H56.8539C56.9334 33.3778 57.0485 33.1989 57.199 33.017C57.3525 32.8324 57.5513 32.679 57.7956 32.5568C58.0428 32.4318 58.3496 32.3693 58.7161 32.3693C59.1934 32.3693 59.6337 32.4943 60.0371 32.7443C60.4405 32.9915 60.763 33.3651 61.0044 33.8651C61.2459 34.3622 61.3667 34.9858 61.3667 35.7358C61.3667 36.4659 61.2488 37.0824 61.013 37.5852C60.78 38.0852 60.4618 38.4645 60.0584 38.723C59.6578 38.9787 59.209 39.1065 58.7118 39.1065C58.3596 39.1065 58.0598 39.0483 57.8127 38.9318C57.5684 38.8153 57.3681 38.669 57.2118 38.4929C57.0556 38.3139 56.9363 38.1335 56.8539 37.9517H56.7729V39H54.9831ZM56.7601 35.7273C56.7601 36.1165 56.8141 36.456 56.9221 36.7457C57.03 37.0355 57.1863 37.2614 57.3908 37.4233C57.5953 37.5824 57.8439 37.6619 58.1365 37.6619C58.432 37.6619 58.682 37.581 58.8865 37.419C59.0911 37.2543 59.2459 37.027 59.351 36.7372C59.459 36.4446 59.513 36.108 59.513 35.7273C59.513 35.3494 59.4604 35.017 59.3553 34.7301C59.2502 34.4432 59.0953 34.2187 58.8908 34.0568C58.6863 33.8949 58.4348 33.8139 58.1365 33.8139C57.8411 33.8139 57.5911 33.892 57.3865 34.0483C57.1848 34.2045 57.03 34.4261 56.9221 34.7131C56.8141 35 56.7601 35.3381 56.7601 35.7273Z" fill="white"/>
<defs>
<linearGradient id="paint0_linear_1_247" x1="36" y1="8" x2="36" y2="64" gradientUnits="userSpaceOnUse">
<stop stop-color="#C65B5B"/>
<stop offset="1" stop-color="#9A4242"/>
</linearGradient>
</defs>
</svg>
