<svg width="72" height="72" viewBox="0 0 72 72" fill="none" xmlns="http://www.w3.org/2000/svg">
<rect x="2" y="2" width="68" height="68" rx="34" fill="#813D3D" stroke="#171717" stroke-width="4"/>
<rect x="8" y="8" width="56" height="56" rx="28" fill="url(#paint0_linear_1_243)"/>
<path d="M21.3473 42V30.3636H25.9382C26.817 30.3636 27.567 30.5208 28.1882 30.8352C28.8132 31.1458 29.2886 31.5871 29.6143 32.1591C29.9439 32.7273 30.1087 33.3958 30.1087 34.1648C30.1087 34.9375 29.942 35.6023 29.6087 36.1591C29.2753 36.7121 28.7924 37.1364 28.1598 37.4318C27.531 37.7273 26.7696 37.875 25.8757 37.875H22.8018V35.8977H25.478C25.9477 35.8977 26.3378 35.8333 26.6484 35.7045C26.959 35.5758 27.1901 35.3826 27.3416 35.125C27.4969 34.8674 27.5746 34.5473 27.5746 34.1648C27.5746 33.7784 27.4969 33.4527 27.3416 33.1875C27.1901 32.9223 26.9571 32.7216 26.6428 32.5852C26.3321 32.4451 25.9401 32.375 25.4666 32.375H23.8075V42H21.3473ZM27.6314 36.7045L30.5234 42H27.8075L24.978 36.7045H27.6314ZM31.8473 42V30.3636H39.6882V32.392H34.3075V35.1648H39.2848V37.1932H34.3075V39.9716H39.7109V42H31.8473ZM51.9112 34.4375H49.4226C49.3771 34.1155 49.2843 33.8295 49.1442 33.5795C49.004 33.3258 48.8241 33.1098 48.6044 32.9318C48.3847 32.7538 48.1309 32.6174 47.843 32.5227C47.5589 32.428 47.2502 32.3807 46.9169 32.3807C46.3146 32.3807 45.79 32.5303 45.343 32.8295C44.8961 33.125 44.5495 33.5568 44.3033 34.125C44.0571 34.6894 43.9339 35.375 43.9339 36.1818C43.9339 37.0114 44.0571 37.7083 44.3033 38.2727C44.5533 38.8371 44.9018 39.2633 45.3487 39.5511C45.7957 39.839 46.3127 39.983 46.8999 39.983C47.2294 39.983 47.5343 39.9394 47.8146 39.8523C48.0987 39.7652 48.3506 39.6383 48.5703 39.4716C48.79 39.3011 48.9718 39.0947 49.1158 38.8523C49.2635 38.6098 49.3658 38.3333 49.4226 38.0227L51.9112 38.0341C51.8468 38.5682 51.6858 39.0833 51.4283 39.5795C51.1745 40.072 50.8317 40.5133 50.3999 40.9034C49.9718 41.2898 49.4605 41.5966 48.8658 41.8239C48.2749 42.0473 47.6063 42.1591 46.8601 42.1591C45.8222 42.1591 44.8942 41.9242 44.076 41.4545C43.2616 40.9848 42.6177 40.3049 42.1442 39.4148C41.6745 38.5246 41.4396 37.447 41.4396 36.1818C41.4396 34.9129 41.6783 33.8333 42.1555 32.9432C42.6328 32.053 43.2805 31.375 44.0987 30.9091C44.9169 30.4394 45.8374 30.2045 46.8601 30.2045C47.5343 30.2045 48.1593 30.2992 48.7351 30.4886C49.3146 30.678 49.8279 30.9545 50.2749 31.3182C50.7218 31.678 51.0855 32.1193 51.3658 32.642C51.6499 33.1648 51.8317 33.7633 51.9112 34.4375Z" fill="white"/>
<defs>
<linearGradient id="paint0_linear_1_243" x1="36" y1="8" x2="36" y2="64" gradientUnits="userSpaceOnUse">
<stop stop-color="#C65B5B"/>
<stop offset="1" stop-color="#9A4242"/>
</linearGradient>
</defs>
</svg>
