<svg width="95" height="77" viewBox="0 0 95 77" fill="none" xmlns="http://www.w3.org/2000/svg">
<g clip-path="url(#clip0_3_499)">
<rect y="21" width="12" height="42" rx="6" fill="#0F0F0F"/>
<path d="M5.7002 42C5.7002 41.8343 5.83431 41.7002 6 41.7002C6.16569 41.7002 6.2998 41.8343 6.2998 42V55H7.73242L6 58L4.26758 55H5.7002V42Z" fill="#504D5F"/>
<path d="M5.7002 42.5C5.7002 42.6657 5.83431 42.7998 6 42.7998C6.16569 42.7998 6.2998 42.6657 6.2998 42.5V29H7.73242L6 26L4.26758 29H5.7002V42.5Z" fill="#504D5F"/>
<circle cx="51" cy="42" r="35" fill="#0F0F0F"/>
<g clip-path="url(#clip1_3_499)">
<rect x="81.5" y="0.5" width="13" height="13" rx="3.5" stroke="#504D5F"/>
<path d="M91 9.5C91 9.77614 90.7761 10 90.5 10L85.5 10C85.2239 10 85 9.77614 85 9.5C85 9.22386 85.2239 9 85.5 9L90.5 9C90.7761 9 91 9.22386 91 9.5Z" fill="#504D5F"/>
<path d="M91 7.5C91 7.77614 90.7761 8 90.5 8L85.5 8C85.2239 8 85 7.77614 85 7.5C85 7.22386 85.2239 7 85.5 7L90.5 7C90.7761 7 91 7.22386 91 7.5Z" fill="#504D5F"/>
<path d="M91 5.5C91 5.77614 90.7761 6 90.5 6L85.5 6C85.2239 6 85 5.77614 85 5.5C85 5.22386 85.2239 5 85.5 5L90.5 5C90.7761 5 91 5.22386 91 5.5Z" fill="#504D5F"/>
</g>
</g>
<defs>
<clipPath id="clip0_3_499">
<rect width="95" height="77" fill="white"/>
</clipPath>
<clipPath id="clip1_3_499">
<rect width="14" height="14" fill="white" transform="translate(81)"/>
</clipPath>
</defs>
</svg>
