<svg width="170" height="212" viewBox="0 0 170 212" fill="none" xmlns="http://www.w3.org/2000/svg">
<g filter="url(#filter0_d_1_56)">
<rect x="10" width="150" height="192" rx="10" fill="#3C3C3C" shape-rendering="crispEdges"/>
<rect x="10.5" y="0.5" width="149" height="191" rx="9.5" stroke="#202020" shape-rendering="crispEdges"/>
<path d="M64.8633 29.0234V29.6582H56.9141V29.0234H60.4688V26.8945H61.2207V29.0234H64.8633ZM61.2402 23.3691C61.2402 24.8242 62.959 26.0938 64.4727 26.3574L64.1309 26.9922C62.8076 26.7236 61.4111 25.8252 60.8496 24.5703C60.2783 25.8203 58.8916 26.7236 57.5684 26.9922L57.2266 26.3574C58.7402 26.0938 60.4395 24.8242 60.4395 23.3691V22.7051H61.2402V23.3691ZM69.8828 23.3887C69.8828 24.873 71.582 26.2012 73.0957 26.4844L72.7441 27.1289C71.4355 26.8262 70.0537 25.8936 69.4922 24.6094C68.9307 25.8887 67.5537 26.8213 66.2402 27.1289L65.8887 26.4844C67.3926 26.1914 69.082 24.8828 69.082 23.3887V22.7246H69.8828V23.3887ZM73.5059 28.9746V29.6094H65.5566V28.9746H73.5059ZM83.8672 22.1094V30.8105H83.0957V22.1094H83.8672ZM79.248 22.7832C80.5371 22.793 81.4648 23.9648 81.4648 25.8105C81.4648 27.6562 80.5371 28.8281 79.248 28.8281C77.9492 28.8281 77.0312 27.6562 77.0312 25.8105C77.0312 23.9648 77.9492 22.793 79.248 22.7832ZM79.248 23.4668C78.3789 23.4766 77.7734 24.3945 77.7734 25.8105C77.7734 27.2266 78.3789 28.1445 79.248 28.1445C80.1172 28.1445 80.7227 27.2266 80.7227 25.8105C80.7227 24.3945 80.1172 23.4766 79.248 23.4668ZM93.291 26.5918V27.2266H85.3418V26.5918H93.291ZM92.2656 22.3242V24.375H87.1387V25.2441H92.4512V25.8398H86.377V23.7988H91.4941V22.9395H86.3477V22.3242H92.2656ZM92.2656 28.0176V30.6738H86.4258V28.0176H92.2656ZM87.1777 28.6426V30.0488H91.5137V28.6426H87.1777ZM103.701 22.1191V28.5449H102.93V26.2109H100.879V27.0605H96.9434V22.6953H97.7051V24.2383H100.127V22.6953H100.879V23.7109H102.93V22.1191H103.701ZM103.896 29.9609V30.6055H98.0859V27.9102H98.8574V29.9609H103.896ZM97.7051 26.4258H100.127V24.8438H97.7051V26.4258ZM100.879 25.5762H102.93V24.3555H100.879V25.5762ZM112.344 22.1191V27.334H111.572V26.1621H109.268V25.5273H111.572V24.3555H109.355C108.784 25.752 107.441 26.7627 105.586 27.3145L105.264 26.709C107.363 26.084 108.667 24.9121 108.828 23.4082H105.703V22.7637H109.658C109.658 23.1055 109.619 23.4326 109.551 23.7402H111.572V22.1191H112.344ZM109.502 27.4219C111.26 27.4219 112.393 28.0469 112.393 29.082C112.393 30.127 111.26 30.752 109.502 30.752C107.725 30.752 106.602 30.127 106.602 29.082C106.602 28.0469 107.725 27.4219 109.502 27.4219ZM109.502 28.0371C108.193 28.0273 107.354 28.4277 107.354 29.082C107.354 29.7363 108.193 30.127 109.502 30.127C110.791 30.127 111.621 29.7363 111.631 29.082C111.621 28.4277 110.791 28.0273 109.502 28.0371Z" fill="white"/>
<path d="M67.4805 51.6914H66.5137V55.8711C67.0638 55.832 67.5228 55.7897 67.8906 55.7441L67.9297 56.3105C67.1159 56.4408 66.2663 56.527 65.3809 56.5693C64.4954 56.6117 63.5286 56.6361 62.4805 56.6426L62.3828 55.9883L63.5547 55.9834V51.6914H62.5977V51.0566H67.4805V51.6914ZM69.209 53.5957H70.6641V54.2402H69.209V58.791H68.4473V50.1094H69.209V53.5957ZM64.2969 55.9688C64.7363 55.959 65.2311 55.9411 65.7812 55.915V51.6914H64.2969V55.9688ZM73.5938 50.4316C74.0234 50.4349 74.4076 50.5179 74.7461 50.6807C75.0879 50.8434 75.3548 51.0713 75.5469 51.3643C75.7422 51.654 75.8398 51.9844 75.8398 52.3555C75.8398 52.7266 75.7422 53.0586 75.5469 53.3516C75.3548 53.6413 75.0879 53.8675 74.7461 54.0303C74.4076 54.1898 74.0234 54.2695 73.5938 54.2695C73.1576 54.2695 72.7686 54.1898 72.4268 54.0303C72.085 53.8675 71.818 53.6413 71.626 53.3516C71.4339 53.0586 71.3379 52.7266 71.3379 52.3555C71.3379 51.9844 71.4339 51.654 71.626 51.3643C71.818 51.0713 72.085 50.8434 72.4268 50.6807C72.7686 50.5179 73.1576 50.4349 73.5938 50.4316ZM73.5938 51.0762C73.3073 51.0762 73.0485 51.1315 72.8174 51.2422C72.5895 51.3496 72.4105 51.501 72.2803 51.6963C72.1501 51.8883 72.0866 52.1081 72.0898 52.3555C72.0866 52.6061 72.1501 52.8291 72.2803 53.0244C72.4105 53.2197 72.5895 53.3727 72.8174 53.4834C73.0485 53.5908 73.3073 53.6445 73.5938 53.6445C73.877 53.6445 74.1325 53.5908 74.3604 53.4834C74.5915 53.3727 74.7721 53.2197 74.9023 53.0244C75.0326 52.8291 75.0977 52.6061 75.0977 52.3555C75.0977 52.1081 75.0326 51.8883 74.9023 51.6963C74.7721 51.501 74.5915 51.3496 74.3604 51.2422C74.1325 51.1315 73.877 51.0762 73.5938 51.0762ZM78.3008 54.5723H77.5391V50.1094H78.3008V54.5723ZM78.3008 57.082H73.4277V58.0586H78.6133V58.6738H72.6758V56.5059H77.5391V55.6074H72.6562V54.9922H78.3008V57.082ZM87.7246 57.7168H79.7754V57.0723H83.3496V55.4316H80.7715V52.7559H85.9668V51.3887H80.752V50.7539H86.7188V53.3809H81.5332V54.7969H86.9238V55.4316H84.1016V57.0723H87.7246V57.7168ZM98.125 58.8105H97.3535V53.9082H95.4492V53.2734H97.3535V50.1094H98.125V58.8105ZM93.9355 52.6875C93.9355 53.1595 94.0381 53.638 94.2432 54.123C94.4515 54.6048 94.7314 55.0378 95.083 55.4219C95.4346 55.806 95.8203 56.0924 96.2402 56.2812L95.7812 56.8965C95.2897 56.6556 94.8454 56.291 94.4482 55.8027C94.0544 55.3112 93.7581 54.7611 93.5596 54.1523C93.361 54.7936 93.0615 55.3763 92.6611 55.9004C92.2607 56.4212 91.8132 56.8118 91.3184 57.0723L90.8496 56.4766C91.2663 56.2715 91.6504 55.9688 92.002 55.5684C92.3568 55.1647 92.6383 54.7106 92.8467 54.2061C93.055 53.6982 93.1608 53.1921 93.1641 52.6875V51.6426H91.1816V51.0078H95.9277V51.6426H93.9355V52.6875ZM102.51 51.7598C102.51 52.1341 102.598 52.4922 102.773 52.834C102.952 53.1725 103.201 53.472 103.521 53.7324C103.843 53.9896 104.215 54.1882 104.639 54.3281L104.277 54.9336C103.783 54.7708 103.35 54.5251 102.979 54.1963C102.611 53.8675 102.332 53.4818 102.144 53.0391C101.958 53.5371 101.673 53.9733 101.289 54.3477C100.905 54.7188 100.452 54.9987 99.9316 55.1875L99.541 54.5723C99.9707 54.4258 100.353 54.2109 100.688 53.9277C101.024 53.6445 101.284 53.3158 101.47 52.9414C101.659 52.5638 101.755 52.1699 101.758 51.7598V51.3887H99.7754V50.7539H104.463V51.3887H102.51V51.7598ZM106.357 52.3262H107.666V52.9707H106.357V55.3535H105.596V50.1094H106.357V52.3262ZM103.574 55.5879C104.167 55.5879 104.678 55.6514 105.107 55.7783C105.537 55.902 105.866 56.0827 106.094 56.3203C106.322 56.5579 106.436 56.8411 106.436 57.1699C106.436 57.5052 106.322 57.7933 106.094 58.0342C105.866 58.2751 105.537 58.4574 105.107 58.5811C104.678 58.708 104.167 58.7715 103.574 58.7715C102.982 58.7715 102.469 58.708 102.036 58.5811C101.603 58.4574 101.271 58.2751 101.04 58.0342C100.809 57.7933 100.693 57.5052 100.693 57.1699C100.693 56.8411 100.809 56.5579 101.04 56.3203C101.271 56.0827 101.603 55.902 102.036 55.7783C102.469 55.6514 102.982 55.5879 103.574 55.5879ZM103.574 56.2031C103.141 56.2031 102.765 56.2422 102.446 56.3203C102.127 56.3952 101.883 56.5059 101.714 56.6523C101.545 56.7988 101.462 56.9714 101.465 57.1699C101.462 57.375 101.545 57.5524 101.714 57.7021C101.883 57.8486 102.126 57.9609 102.441 58.0391C102.76 58.1172 103.138 58.1562 103.574 58.1562C104.014 58.1562 104.391 58.1172 104.707 58.0391C105.026 57.9609 105.27 57.8486 105.439 57.7021C105.609 57.5524 105.693 57.375 105.693 57.1699C105.693 56.9681 105.609 56.7956 105.439 56.6523C105.27 56.5059 105.026 56.3952 104.707 56.3203C104.388 56.2422 104.01 56.2031 103.574 56.2031Z" fill="white"/>
<path d="M66.1182 85.6582H58.1689V85.0234H61.7236V82.8945H62.4756V85.0234H66.1182V85.6582ZM62.4951 79.3691C62.4951 79.8314 62.6546 80.2757 62.9736 80.7021C63.2959 81.1286 63.7061 81.4899 64.2041 81.7861C64.7054 82.0791 65.2132 82.2695 65.7275 82.3574L65.3857 82.9922C64.9365 82.901 64.4954 82.7432 64.0625 82.5186C63.6296 82.2939 63.2389 82.014 62.8906 81.6787C62.5456 81.3434 62.2819 80.974 62.0996 80.5703C61.9173 80.974 61.6536 81.3434 61.3086 81.6787C60.9635 82.014 60.5745 82.2939 60.1416 82.5186C59.7119 82.7432 59.2725 82.901 58.8232 82.9922L58.4814 82.3574C58.9958 82.2695 59.5003 82.0791 59.9951 81.7861C60.4932 81.4899 60.9001 81.1302 61.2158 80.707C61.5348 80.2806 61.6943 79.8346 61.6943 79.3691V78.7051H62.4951V79.3691ZM71.1377 79.3887C71.1377 79.8607 71.2956 80.318 71.6113 80.7607C71.9303 81.2002 72.3389 81.5745 72.8369 81.8838C73.335 82.1898 73.8395 82.39 74.3506 82.4844L73.999 83.1289C73.5563 83.0247 73.1201 82.8555 72.6904 82.6211C72.2607 82.3867 71.875 82.097 71.5332 81.752C71.1914 81.4069 70.9294 81.0277 70.7471 80.6143C70.5648 81.0244 70.3027 81.402 69.9609 81.7471C69.6191 82.0921 69.2334 82.3835 68.8037 82.6211C68.3773 82.8555 67.9411 83.0247 67.4951 83.1289L67.1436 82.4844C67.6546 82.3835 68.1576 82.1816 68.6523 81.8789C69.1471 81.5729 69.5508 81.2002 69.8633 80.7607C70.179 80.3213 70.3369 79.8639 70.3369 79.3887V78.7246H71.1377V79.3887ZM74.7607 85.6094H66.8115V84.9746H74.7607V85.6094ZM79.7803 79.0859H84.0771V78.2559H84.8389V81.1074H79.0186V78.2559H79.7803V79.0859ZM84.0771 80.5117V79.6719H79.7803V80.5117H84.0771ZM85.874 82.4648H82.29V83.3145H84.8584V85.2383H79.7021V86.0879H85.1221V86.6934H78.9404V84.6719H84.1064V83.9004H78.9209V83.3145H81.5283V82.4648H77.9639V81.8301H85.874V82.4648ZM93.7939 86.8105H93.0322V82.0938H91.3428V81.4492H93.0322V78.1094H93.7939V86.8105ZM90.8154 81.957H87.7002V84.0664C88.5173 84.0664 89.2139 84.0485 89.79 84.0127C90.3662 83.9736 90.9521 83.8971 91.5479 83.7832L91.6064 84.4277C90.9912 84.5384 90.3841 84.6133 89.7852 84.6523C89.1895 84.6914 88.4619 84.7142 87.6025 84.7207H86.9385V81.3223H90.0732V79.5547H86.9092V78.9199H90.8154V81.957ZM99.2041 78.6758C99.8161 78.679 100.363 78.7751 100.845 78.9639C101.326 79.1527 101.702 79.4196 101.973 79.7646C102.243 80.1064 102.378 80.502 102.378 80.9512C102.378 81.3743 102.259 81.7503 102.021 82.0791C101.787 82.4079 101.458 82.6699 101.035 82.8652C100.612 83.0605 100.125 83.1761 99.5752 83.2119V85.0332H103.198V85.6777H95.249V85.0332H98.8232V83.2119C98.2764 83.1761 97.7913 83.0605 97.3682 82.8652C96.945 82.6667 96.6162 82.4046 96.3818 82.0791C96.1475 81.7503 96.0303 81.3743 96.0303 80.9512C96.0303 80.502 96.1654 80.1064 96.4355 79.7646C96.7057 79.4196 97.0817 79.1527 97.5635 78.9639C98.0452 78.7751 98.5921 78.679 99.2041 78.6758ZM99.2041 79.3105C98.7386 79.3105 98.3203 79.3805 97.9492 79.5205C97.5814 79.6572 97.2933 79.8509 97.085 80.1016C96.8766 80.349 96.7725 80.6322 96.7725 80.9512C96.7725 81.2799 96.8766 81.5697 97.085 81.8203C97.2933 82.071 97.5814 82.2646 97.9492 82.4014C98.3171 82.5381 98.7354 82.6081 99.2041 82.6113C99.6729 82.6081 100.091 82.5381 100.459 82.4014C100.827 82.2646 101.115 82.071 101.323 81.8203C101.532 81.5697 101.636 81.2799 101.636 80.9512C101.636 80.6322 101.532 80.349 101.323 80.1016C101.115 79.8509 100.825 79.6572 100.454 79.5205C100.086 79.3805 99.6696 79.3105 99.2041 79.3105ZM111.069 86.791H110.298V78.1094H111.069V86.791ZM108.501 79.0566C108.494 80.3685 108.162 81.5469 107.505 82.5918C106.847 83.6335 105.819 84.4896 104.419 85.1602L103.999 84.5352C105.158 83.985 106.045 83.3014 106.66 82.4844C107.279 81.6673 107.632 80.7331 107.72 79.6816H104.399V79.0566H108.501Z" fill="white"/>
<path d="M74.7607 113.658H66.8115V113.023H70.3662V110.895H71.1182V113.023H74.7607V113.658ZM71.1377 107.369C71.1377 107.831 71.2972 108.276 71.6162 108.702C71.9385 109.129 72.3486 109.49 72.8467 109.786C73.348 110.079 73.8558 110.27 74.3701 110.357L74.0283 110.992C73.5791 110.901 73.138 110.743 72.7051 110.519C72.2721 110.294 71.8815 110.014 71.5332 109.679C71.1882 109.343 70.9245 108.974 70.7422 108.57C70.5599 108.974 70.2962 109.343 69.9512 109.679C69.6061 110.014 69.2171 110.294 68.7842 110.519C68.3545 110.743 67.915 110.901 67.4658 110.992L67.124 110.357C67.6383 110.27 68.1429 110.079 68.6377 109.786C69.1357 109.49 69.5426 109.13 69.8584 108.707C70.1774 108.281 70.3369 107.835 70.3369 107.369V106.705H71.1377V107.369ZM79.7803 107.389C79.7803 107.861 79.9382 108.318 80.2539 108.761C80.5729 109.2 80.9814 109.575 81.4795 109.884C81.9775 110.19 82.4821 110.39 82.9932 110.484L82.6416 111.129C82.1989 111.025 81.7627 110.855 81.333 110.621C80.9033 110.387 80.5176 110.097 80.1758 109.752C79.834 109.407 79.5719 109.028 79.3896 108.614C79.2074 109.024 78.9453 109.402 78.6035 109.747C78.2617 110.092 77.876 110.383 77.4463 110.621C77.0199 110.855 76.5837 111.025 76.1377 111.129L75.7861 110.484C76.2972 110.383 76.8001 110.182 77.2949 109.879C77.7897 109.573 78.1934 109.2 78.5059 108.761C78.8216 108.321 78.9795 107.864 78.9795 107.389V106.725H79.7803V107.389ZM83.4033 113.609H75.4541V112.975H83.4033V113.609ZM94.5166 111.236H86.6064V110.602H90.1807V109.557H87.6611V106.314H88.4229V107.32H92.7197V106.314H93.4814V109.557H90.9424V110.602H94.5166V111.236ZM93.54 114.791H92.7686V112.711H87.4854V112.096H93.54V114.791ZM92.7197 108.941V107.906H88.4229V108.941H92.7197ZM102.671 114.791H101.938V106.109H102.671V114.791ZM100.913 114.342H100.19V109.869H98.7256V109.244H100.19V106.324H100.913V114.342ZM97.7979 108.59C97.7979 109.094 97.8711 109.588 98.0176 110.069C98.1641 110.548 98.3789 110.981 98.6621 111.368C98.9453 111.752 99.2822 112.057 99.6729 112.281L99.2041 112.848C98.7842 112.597 98.4245 112.25 98.125 111.808C97.8255 111.362 97.5977 110.857 97.4414 110.294C97.2819 110.903 97.0459 111.448 96.7334 111.93C96.4242 112.411 96.0563 112.786 95.6299 113.053L95.1416 112.477C95.5355 112.242 95.8773 111.922 96.167 111.515C96.4567 111.108 96.6764 110.652 96.8262 110.147C96.9792 109.64 97.0557 109.12 97.0557 108.59V107.77H95.3857V107.135H99.3896V107.77H97.7979V108.59Z" fill="white"/>
<path d="M51.8604 139.236H43.9502V138.602H47.5244V137.557H45.0049V134.314H45.7666V135.32H50.0635V134.314H50.8252V137.557H48.2861V138.602H51.8604V139.236ZM50.8838 142.791H50.1123V140.711H44.8291V140.096H50.8838V142.791ZM50.0635 136.941V135.906H45.7666V136.941H50.0635ZM55.5029 136.443C55.5029 136.941 55.6038 137.439 55.8057 137.938C56.0075 138.432 56.2793 138.875 56.6211 139.266C56.9661 139.656 57.3421 139.952 57.749 140.154L57.2803 140.77C56.8018 140.519 56.3721 140.151 55.9912 139.666C55.6136 139.181 55.3288 138.637 55.1367 138.035C54.9447 138.676 54.6549 139.256 54.2676 139.773C53.8802 140.288 53.4424 140.675 52.9541 140.936L52.4658 140.32C52.8857 140.115 53.2682 139.808 53.6133 139.397C53.9616 138.984 54.2367 138.519 54.4385 138.001C54.6436 137.48 54.7477 136.961 54.751 136.443V134.861H55.5029V136.443ZM59.3115 137.635H60.7666V138.299H59.3115V142.791H58.5498V134.109H59.3115V137.635ZM68.0225 136.98H69.3311V137.625H68.0225V140.623H67.2607V134.119H68.0225V136.98ZM66.4307 135.809H61.2549V135.184H63.4619V134.119H64.2236V135.184H66.4307V135.809ZM63.8428 136.287C64.2529 136.287 64.6143 136.354 64.9268 136.487C65.2425 136.621 65.4883 136.81 65.6641 137.054C65.8398 137.298 65.9294 137.583 65.9326 137.908C65.9294 138.23 65.8398 138.512 65.6641 138.753C65.4883 138.994 65.2425 139.181 64.9268 139.314C64.6143 139.445 64.2529 139.51 63.8428 139.51C63.4294 139.51 63.0632 139.445 62.7441 139.314C62.4284 139.181 62.1826 138.994 62.0068 138.753C61.8343 138.512 61.7497 138.23 61.7529 137.908C61.7497 137.583 61.8343 137.298 62.0068 137.054C62.1826 136.81 62.4284 136.621 62.7441 136.487C63.0632 136.354 63.4294 136.287 63.8428 136.287ZM63.8428 136.893C63.5726 136.893 63.3333 136.935 63.125 137.02C62.9199 137.101 62.7604 137.22 62.6465 137.376C62.5358 137.529 62.4821 137.706 62.4854 137.908C62.4821 138.11 62.5358 138.287 62.6465 138.44C62.7604 138.59 62.9199 138.706 63.125 138.787C63.3333 138.868 63.5726 138.908 63.8428 138.904C64.1097 138.908 64.3457 138.868 64.5508 138.787C64.7591 138.706 64.9202 138.59 65.0342 138.44C65.1481 138.287 65.2067 138.11 65.21 137.908C65.2067 137.706 65.1481 137.529 65.0342 137.376C64.9202 137.22 64.7591 137.101 64.5508 137.02C64.3457 136.935 64.1097 136.893 63.8428 136.893ZM68.4229 142.605H62.5928V140.105H63.3447V141.961H68.4229V142.605ZM80.3369 141.658H72.3877V141.023H75.9424V138.895H76.6943V141.023H80.3369V141.658ZM76.7139 135.369C76.7139 135.831 76.8734 136.276 77.1924 136.702C77.5146 137.129 77.9248 137.49 78.4229 137.786C78.9242 138.079 79.432 138.27 79.9463 138.357L79.6045 138.992C79.1553 138.901 78.7142 138.743 78.2812 138.519C77.8483 138.294 77.4577 138.014 77.1094 137.679C76.7643 137.343 76.5007 136.974 76.3184 136.57C76.1361 136.974 75.8724 137.343 75.5273 137.679C75.1823 138.014 74.7933 138.294 74.3604 138.519C73.9307 138.743 73.4912 138.901 73.042 138.992L72.7002 138.357C73.2145 138.27 73.7191 138.079 74.2139 137.786C74.7119 137.49 75.1188 137.13 75.4346 136.707C75.7536 136.281 75.9131 135.835 75.9131 135.369V134.705H76.7139V135.369ZM85.3564 135.389C85.3564 135.861 85.5143 136.318 85.8301 136.761C86.1491 137.2 86.5576 137.575 87.0557 137.884C87.5537 138.19 88.0583 138.39 88.5693 138.484L88.2178 139.129C87.7751 139.025 87.3389 138.855 86.9092 138.621C86.4795 138.387 86.0938 138.097 85.752 137.752C85.4102 137.407 85.1481 137.028 84.9658 136.614C84.7835 137.024 84.5215 137.402 84.1797 137.747C83.8379 138.092 83.4521 138.383 83.0225 138.621C82.596 138.855 82.1598 139.025 81.7139 139.129L81.3623 138.484C81.8734 138.383 82.3763 138.182 82.8711 137.879C83.3659 137.573 83.7695 137.2 84.082 136.761C84.3978 136.321 84.5557 135.864 84.5557 135.389V134.725H85.3564V135.389ZM88.9795 141.609H81.0303V140.975H88.9795V141.609ZM99.1553 140.037H93.9404V140.789H98.9502V141.336H93.9404V142.107H99.2529V142.693H93.1689V139.461H95.7471V138.543H92.1826V137.928H100.093V138.543H96.5088V139.461H99.1553V140.037ZM93.999 135.125H98.2959V134.266H99.0576V137.205H93.2373V134.266H93.999V135.125ZM98.2959 136.59V135.721H93.999V136.59H98.2959ZM103.159 134.783C103.556 134.786 103.911 134.899 104.224 135.12C104.536 135.338 104.787 135.649 104.976 136.053H107.261V134.109H108.022V142.811H107.261V139.441H105.029C104.847 139.884 104.593 140.226 104.268 140.467C103.945 140.708 103.576 140.828 103.159 140.828C102.736 140.828 102.358 140.704 102.026 140.457C101.698 140.21 101.44 139.858 101.255 139.402C101.073 138.947 100.981 138.416 100.981 137.811C100.981 137.205 101.073 136.674 101.255 136.219C101.44 135.763 101.698 135.411 102.026 135.164C102.355 134.913 102.733 134.786 103.159 134.783ZM103.159 135.467C102.876 135.47 102.624 135.569 102.402 135.765C102.184 135.957 102.015 136.23 101.895 136.585C101.774 136.937 101.714 137.345 101.714 137.811C101.714 138.276 101.774 138.686 101.895 139.041C102.015 139.393 102.184 139.664 102.402 139.856C102.624 140.049 102.876 140.145 103.159 140.145C103.439 140.145 103.688 140.049 103.906 139.856C104.128 139.664 104.299 139.393 104.419 139.041C104.543 138.686 104.604 138.276 104.604 137.811C104.604 137.345 104.543 136.937 104.419 136.585C104.299 136.23 104.129 135.957 103.911 135.765C103.693 135.569 103.442 135.47 103.159 135.467ZM105.2 136.697C105.285 137.062 105.327 137.433 105.327 137.811C105.327 138.149 105.293 138.481 105.225 138.807H107.261V136.697H105.2ZM110.747 137.371C111.483 137.365 112.145 137.337 112.734 137.288C113.327 137.239 113.924 137.156 114.526 137.039L114.624 137.674C113.966 137.801 113.324 137.892 112.695 137.947C112.07 137.999 111.388 138.025 110.649 138.025H109.976V134.529H110.747V137.371ZM116.665 138.758H115.894V136.072H113.374V135.457H115.894V134.109H116.665V138.758ZM116.87 139.852H110.708V139.236H113.413V138.367H114.175V139.236H116.87V139.852ZM113.784 140.223C114.292 140.223 114.728 140.271 115.093 140.369C115.461 140.467 115.742 140.612 115.938 140.804C116.133 140.993 116.232 141.222 116.235 141.492C116.232 141.902 116.014 142.218 115.581 142.439C115.151 142.661 114.552 142.771 113.784 142.771C113.283 142.771 112.848 142.723 112.48 142.625C112.116 142.527 111.834 142.382 111.636 142.19C111.44 141.998 111.343 141.766 111.343 141.492C111.343 141.222 111.44 140.993 111.636 140.804C111.834 140.612 112.116 140.467 112.48 140.369C112.848 140.271 113.283 140.223 113.784 140.223ZM113.784 140.789C113.257 140.789 112.845 140.851 112.549 140.975C112.253 141.095 112.104 141.268 112.104 141.492C112.104 141.642 112.171 141.771 112.305 141.878C112.441 141.985 112.635 142.067 112.886 142.122C113.14 142.181 113.439 142.208 113.784 142.205C114.129 142.208 114.427 142.181 114.678 142.122C114.932 142.067 115.125 141.985 115.259 141.878C115.396 141.771 115.464 141.642 115.464 141.492C115.464 141.268 115.316 141.095 115.02 140.975C114.723 140.851 114.312 140.789 113.784 140.789ZM125.288 142.791H124.517V134.109H125.288V142.791ZM122.72 135.057C122.713 136.368 122.381 137.547 121.724 138.592C121.066 139.633 120.037 140.49 118.638 141.16L118.218 140.535C119.377 139.985 120.264 139.301 120.879 138.484C121.497 137.667 121.851 136.733 121.938 135.682H118.618V135.057H122.72Z" fill="white"/>
<path d="M59.8828 163.75C59.8828 164.15 59.9723 164.538 60.1514 164.912C60.3337 165.283 60.5876 165.614 60.9131 165.903C61.2386 166.19 61.6113 166.41 62.0312 166.562L61.6016 167.158C61.1263 166.969 60.7064 166.694 60.3418 166.333C59.9805 165.968 59.7054 165.55 59.5166 165.078C59.3343 165.602 59.0527 166.064 58.6719 166.465C58.291 166.865 57.8451 167.168 57.334 167.373L56.9238 166.748C57.3535 166.589 57.7344 166.356 58.0664 166.05C58.3984 165.744 58.6572 165.389 58.8428 164.985C59.0316 164.582 59.1276 164.16 59.1309 163.721V162.646H59.8828V163.75ZM64.1113 168.623H63.3398V164.805H61.4062V164.16H63.3398V162.119H64.1113V168.623ZM64.3066 170.605H58.4961V167.881H59.2676V169.961H64.3066V170.605ZM69.3164 163.389H66.6797V164.473H69.2188V165.078H66.6797V166.279C67.347 166.276 67.9004 166.258 68.3398 166.226C68.7793 166.193 69.222 166.133 69.668 166.045L69.7461 166.68C69.2513 166.774 68.7679 166.839 68.2959 166.875C67.8271 166.908 67.2266 166.924 66.4941 166.924H65.9473V162.744H69.3164V163.389ZM72.9297 167.383H72.1973V165.01H70.9766V167.324H70.2637V162.285H70.9766V164.385H72.1973V162.119H72.9297V167.383ZM72.9297 170.791H72.1777V168.457H67.0801V167.832H72.9297V170.791ZM84.6582 169.658H76.709V169.023H80.2637V166.895H81.0156V169.023H84.6582V169.658ZM81.0352 163.369C81.0352 163.831 81.1947 164.276 81.5137 164.702C81.8359 165.129 82.2461 165.49 82.7441 165.786C83.2454 166.079 83.7533 166.27 84.2676 166.357L83.9258 166.992C83.4766 166.901 83.0355 166.743 82.6025 166.519C82.1696 166.294 81.779 166.014 81.4307 165.679C81.0856 165.343 80.8219 164.974 80.6396 164.57C80.4574 164.974 80.1937 165.343 79.8486 165.679C79.5036 166.014 79.1146 166.294 78.6816 166.519C78.252 166.743 77.8125 166.901 77.3633 166.992L77.0215 166.357C77.5358 166.27 78.0404 166.079 78.5352 165.786C79.0332 165.49 79.4401 165.13 79.7559 164.707C80.0749 164.281 80.2344 163.835 80.2344 163.369V162.705H81.0352V163.369ZM89.6777 163.389C89.6777 163.861 89.8356 164.318 90.1514 164.761C90.4704 165.2 90.8789 165.575 91.377 165.884C91.875 166.19 92.3796 166.39 92.8906 166.484L92.5391 167.129C92.0964 167.025 91.6602 166.855 91.2305 166.621C90.8008 166.387 90.415 166.097 90.0732 165.752C89.7314 165.407 89.4694 165.028 89.2871 164.614C89.1048 165.024 88.8428 165.402 88.501 165.747C88.1592 166.092 87.7734 166.383 87.3438 166.621C86.9173 166.855 86.4811 167.025 86.0352 167.129L85.6836 166.484C86.1947 166.383 86.6976 166.182 87.1924 165.879C87.6872 165.573 88.0908 165.2 88.4033 164.761C88.7191 164.321 88.877 163.864 88.877 163.389V162.725H89.6777V163.389ZM93.3008 169.609H85.3516V168.975H93.3008V169.609ZM99.4238 163.506C99.4206 163.893 99.5101 164.268 99.6924 164.629C99.8747 164.987 100.13 165.304 100.459 165.581C100.791 165.854 101.169 166.064 101.592 166.211L101.191 166.816C100.703 166.641 100.273 166.379 99.9023 166.03C99.5345 165.679 99.2546 165.272 99.0625 164.81C98.8802 165.317 98.6003 165.762 98.2227 166.143C97.8451 166.52 97.3991 166.803 96.8848 166.992L96.4844 166.377C96.9173 166.221 97.2982 165.998 97.627 165.708C97.9557 165.415 98.2113 165.075 98.3936 164.688C98.5758 164.3 98.6686 163.89 98.6719 163.457V162.559H99.4238V163.506ZM103.291 164.414H104.6V165.068H103.291V167.373H102.529V162.109H103.291V164.414ZM103.291 170.791H102.529V168.428H97.6074V167.803H103.291V170.791ZM112.568 170.791H111.836V162.109H112.568V170.791ZM110.811 170.342H110.088V165.869H108.623V165.244H110.088V162.324H110.811V170.342ZM107.695 164.59C107.695 165.094 107.769 165.588 107.915 166.069C108.062 166.548 108.276 166.981 108.56 167.368C108.843 167.752 109.18 168.057 109.57 168.281L109.102 168.848C108.682 168.597 108.322 168.25 108.022 167.808C107.723 167.362 107.495 166.857 107.339 166.294C107.179 166.903 106.943 167.448 106.631 167.93C106.322 168.411 105.954 168.786 105.527 169.053L105.039 168.477C105.433 168.242 105.775 167.922 106.064 167.515C106.354 167.108 106.574 166.652 106.724 166.147C106.877 165.64 106.953 165.12 106.953 164.59V163.77H105.283V163.135H109.287V163.77H107.695V164.59Z" fill="#FF3F3F"/>
</g>
<defs>
<filter id="filter0_d_1_56" x="0" y="0" width="170" height="212" filterUnits="userSpaceOnUse" color-interpolation-filters="sRGB">
<feFlood flood-opacity="0" result="BackgroundImageFix"/>
<feColorMatrix in="SourceAlpha" type="matrix" values="0 0 0 0 0 0 0 0 0 0 0 0 0 0 0 0 0 0 127 0" result="hardAlpha"/>
<feOffset dy="10"/>
<feGaussianBlur stdDeviation="5"/>
<feComposite in2="hardAlpha" operator="out"/>
<feColorMatrix type="matrix" values="0 0 0 0 0 0 0 0 0 0 0 0 0 0 0 0 0 0 0.2 0"/>
<feBlend mode="normal" in2="BackgroundImageFix" result="effect1_dropShadow_1_56"/>
<feBlend mode="normal" in="SourceGraphic" in2="effect1_dropShadow_1_56" result="shape"/>
</filter>
</defs>
</svg>
